<?xml version="1.0" encoding="UTF-8" standalone="no"?>
<svg width="240" height="60" viewBox="0 0 240 60" fill="none" xmlns="http://www.w3.org/2000/svg">
  <path d="M14.1211 15.36C14.1211 17.12 13.6891 18.6 12.8251 19.8C11.9611 21 10.8011 21.92 9.3451 22.56C7.9051 23.2 6.2651 23.52 4.4251 23.52H0.8091V7.44H4.4251C6.2651 7.44 7.9051 7.76 9.3451 8.4C10.8011 9.04 11.9611 9.96 12.8251 11.16C13.6891 12.36 14.1211 13.76 14.1211 15.36ZM10.7851 15.36C10.7851 14.29 10.5611 13.36 10.1131 12.57C9.6811 11.76 9.0731 11.14 8.2891 10.7C7.5051 10.26 7.0091 10.02 5.9851 10C4.9771 9.98 3.4251 10 2.8011 10V21H4.4251C6.4891 21 8.0571 20.5 9.1371 19.5C10.2351 18.48 10.7851 17.08 10.7851 15.36Z" fill="#0B2A4A"/>
  <path d="M29.3118 23.52L26.3438 19.08C25.9918 19.12 25.6398 19.14 25.2878 19.14H22.2398V23.52H18.9438V7.44H25.2878C26.5198 7.44 27.6158 7.65 28.5758 8.07C29.5518 8.49 30.3038 9.11 30.8318 9.93C31.3598 10.75 31.6238 11.76 31.6238 12.96C31.6238 14.16 31.3518 15.19 30.8078 16.05C30.2798 16.91 29.5118 17.54 28.5038 17.94L32.0278 23.52H29.3118ZM28.3278 12.96C28.3278 11.96 28.0078 11.2 27.3678 10.68C26.7278 10.16 25.7958 9.9 24.5718 9.9H22.2398V16.02H24.5718C25.7958 16.02 26.7278 15.76 27.3678 15.24C28.0078 14.72 28.3278 13.96 28.3278 12.96Z" fill="#0B2A4A"/>
  <path d="M51.8044 15.48C51.8044 17.28 51.3884 18.84 50.5564 20.16C49.7404 21.48 48.6204 22.5 47.1964 23.22C45.7724 23.92 44.1644 24.27 42.3724 24.27C40.5804 24.27 38.9724 23.92 37.5484 23.22C36.1244 22.5 34.9964 21.48 34.1644 20.16C33.3484 18.84 32.9404 17.28 32.9404 15.48C32.9404 13.68 33.3484 12.12 34.1644 10.8C34.9964 9.48 36.1244 8.46 37.5484 7.74C38.9724 7.02 40.5804 6.66 42.3724 6.66C44.1644 6.66 45.7724 7.02 47.1964 7.74C48.6204 8.46 49.7404 9.48 50.5564 10.8C51.3884 12.12 51.8044 13.68 51.8044 15.48ZM48.4364 15.48C48.4364 14.26 48.1964 13.22 47.7164 12.36C47.2524 11.5 46.6044 10.84 45.7724 10.38C44.9404 9.9 43.9884 9.66 42.9244 9.66C41.8604 9.66 40.9084 9.9 40.0764 10.38C39.2444 10.84 38.5884 11.5 38.1084 12.36C37.6444 13.22 37.4124 14.26 37.4124 15.48C37.4124 16.7 37.6444 17.74 38.1084 18.6C38.5884 19.46 39.2444 20.12 40.0764 20.58C40.9084 21.04 41.8604 21.27 42.9244 21.27C43.9884 21.27 44.9404 21.04 45.7724 20.58C46.6044 20.12 47.2524 19.46 47.7164 18.6C48.1964 17.74 48.4364 16.7 48.4364 15.48Z" fill="#0B2A4A"/>
  <path d="M60.9441 9.9V14.19H67.1401V16.65H60.9441V23.52H57.6481V7.44H68.3841V9.9H60.9441Z" fill="#0B2A4A"/>
  <path d="M71.3979 15.48C71.3979 13.68 71.8139 12.12 72.6459 10.8C73.4939 9.48 74.6379 8.46 76.0779 7.74C77.5339 7.02 79.1579 6.66 80.9499 6.66C83.1979 6.66 85.1339 7.22 86.7579 8.34C88.3979 9.46 89.4939 11 90.0459 12.96H86.3699C85.9699 11.88 85.3059 11.04 84.3779 10.44C83.4659 9.84 82.3219 9.54 80.9499 9.54C79.8859 9.54 78.9339 9.78 78.0939 10.26C77.2539 10.72 76.5979 11.38 76.1259 12.24C75.6539 13.1 75.4179 14.16 75.4179 15.42C75.4179 16.66 75.6539 17.72 76.1259 18.6C76.5979 19.46 77.2539 20.12 78.0939 20.58C78.9339 21.04 79.8859 21.27 80.9499 21.27C82.3219 21.27 83.4659 20.98 84.3779 20.4C85.3059 19.8 85.9699 18.96 86.3699 17.88H90.0459C89.4939 19.8 88.3979 21.34 86.7579 22.5C85.1339 23.64 83.1979 24.21 80.9499 24.21C79.1579 24.21 77.5339 23.86 76.0779 23.16C74.6379 22.44 73.4939 21.42 72.6459 20.1C71.8139 18.78 71.3979 17.26 71.3979 15.48Z" fill="#0B2A4A"/>
  <path d="M92.2939 7.44H95.5899V23.52H92.2939V7.44Z" fill="#0B2A4A"/>
  <path d="M109.167 7.44C110.759 7.44 112.127 7.74 113.271 8.34C114.415 8.94 115.287 9.8 115.887 10.92C116.487 12.04 116.787 13.36 116.787 14.88C116.787 16.4 116.487 17.72 115.887 18.84C115.287 19.96 114.415 20.82 113.271 21.42C112.127 22.02 110.759 22.32 109.167 22.32H105.651V23.52H102.355V7.44H109.167ZM109.167 19.86C110.871 19.86 112.155 19.43 113.019 18.57C113.883 17.71 114.315 16.48 114.315 14.88C114.315 13.28 113.883 12.05 113.019 11.19C112.155 10.33 110.871 9.9 109.167 9.9H105.651V19.86H109.167Z" fill="#0B2A4A"/>
  <path d="M126.663 23.52L121.695 16.92V23.52H118.399V7.44H121.695V13.92L126.591 7.44H130.599L124.767 14.64L130.719 23.52H126.663Z" fill="#0B2A4A"/>
  <path d="M139.371 23.52V21.12H139.251C138.891 21.92 138.323 22.54 137.547 22.98C136.787 23.42 135.931 23.64 134.979 23.64C133.219 23.64 131.887 23.1 130.983 22.02C130.079 20.92 129.627 19.38 129.627 17.4V7.44H132.923V16.86C132.923 18.18 133.171 19.15 133.667 19.77C134.179 20.39 134.915 20.7 135.875 20.7C136.899 20.7 137.715 20.33 138.323 19.59C138.931 18.85 139.235 17.86 139.235 16.62V7.44H142.531V23.52H139.371Z" fill="#0B2A4A"/>
  <path d="M145.572 20.64L146.652 18.54C147.372 19.22 148.228 19.75 149.220 20.13C150.212 20.51 151.220 20.7 152.244 20.7C153.268 20.7 154.044 20.53 154.572 20.19C155.100 19.83 155.364 19.36 155.364 18.78C155.364 18.3 155.172 17.92 154.788 17.64C154.404 17.34 153.908 17.11 153.300 16.95C152.692 16.79 151.892 16.61 150.900 16.41C149.620 16.17 148.572 15.9 147.756 15.6C146.956 15.3 146.284 14.83 145.740 14.19C145.212 13.55 144.948 12.7 144.948 11.64C144.948 10.32 145.508 9.24 146.628 8.4C147.748 7.56 149.252 7.14 151.140 7.14C152.580 7.14 153.876 7.36 155.028 7.8C156.180 8.24 157.140 8.86 157.908 9.66L156.948 11.7C156.260 11 155.476 10.45 154.596 10.05C153.716 9.65 152.780 9.45 151.788 9.45C150.796 9.45 150.020 9.64 149.460 10.02C148.916 10.38 148.644 10.85 148.644 11.43C148.644 11.93 148.836 12.33 149.220 12.63C149.604 12.93 150.092 13.17 150.684 13.35C151.292 13.51 152.092 13.68 153.084 13.86C154.348 14.1 155.388 14.38 156.204 14.7C157.020 15 157.700 15.48 158.244 16.14C158.788 16.78 159.060 17.63 159.060 18.69C159.060 20.05 158.476 21.16 157.308 22.02C156.156 22.86 154.572 23.28 152.556 23.28C151.004 23.28 149.580 23.03 148.284 22.53C146.988 22.03 146.972 21.42 146.172 20.64H145.572Z" fill="#0B2A4A"/>
  <path d="M173.006 15.48C173.006 17.28 172.59 18.84 171.758 20.16C170.942 21.48 169.822 22.5 168.398 23.22C166.974 23.92 165.366 24.27 163.574 24.27C161.782 24.27 160.174 23.92 158.75 23.22C157.326 22.5 156.198 21.48 155.366 20.16C154.55 18.84 154.142 17.28 154.142 15.48C154.142 13.68 154.55 12.12 155.366 10.8C156.198 9.48 157.326 8.46 158.75 7.74C160.174 7.02 161.782 6.66 163.574 6.66C165.366 6.66 166.974 7.02 168.398 7.74C169.822 8.46 170.942 9.48 171.758 10.8C172.59 12.12 173.006 13.68 173.006 15.48ZM169.638 15.48C169.638 14.26 169.398 13.22 168.918 12.36C168.454 11.5 167.806 10.84 166.974 10.38C166.142 9.9 165.19 9.66 164.126 9.66C163.062 9.66 162.11 9.9 161.278 10.38C160.446 10.84 159.79 11.5 159.31 12.36C158.846 13.22 158.614 14.26 158.614 15.48C158.614 16.7 158.846 17.74 159.31 18.6C159.79 19.46 160.446 20.12 161.278 20.58C162.11 21.04 163.062 21.27 164.126 21.27C165.19 21.27 166.142 21.04 166.974 20.58C167.806 20.12 168.454 19.46 168.918 18.6C169.398 17.74 169.638 16.7 169.638 15.48Z" fill="#0B2A4A"/>
  <path d="M175.305 7.44H178.601V21.06H186.161V23.52H175.305V7.44Z" fill="#0B2A4A"/>
  <path d="M196.733 23.52V21.12H196.613C196.253 21.92 195.685 22.54 194.909 22.98C194.149 23.42 193.293 23.64 192.341 23.64C190.581 23.64 189.249 23.1 188.345 22.02C187.441 20.92 186.989 19.38 186.989 17.4V7.44H190.285V16.86C190.285 18.18 190.533 19.15 191.029 19.77C191.541 20.39 192.277 20.7 193.237 20.7C194.261 20.7 195.077 20.33 195.685 19.59C196.293 18.85 196.597 17.86 196.597 16.62V7.44H199.893V23.52H196.733Z" fill="#0B2A4A"/>
  <path d="M208.578 7.26C210.034 7.26 211.242 7.65 212.202 8.43C213.178 9.21 213.838 10.3 214.182 11.7H211.302C211.046 10.94 210.646 10.36 210.102 9.96C209.574 9.56 209.29 9.54 208.458 9.45C207.642 9.36 206.97 9.54 206.442 9.99C205.93 10.43 205.674 11.04 205.674 11.82C205.674 12.46 205.874 12.98 206.274 13.38C206.674 13.78 207.194 14.09 207.834 14.31C208.49 14.51 209.29 14.73 210.234 14.97C211.402 15.25 212.386 15.59 213.186 15.99C213.986 16.39 214.606 16.93 215.046 17.61C215.486 18.27 215.706 19.14 215.706 20.22C215.706 21.98 215.09 23.35 213.858 24.33C212.626 25.29 211.01 25.77 209.01 25.77C207.426 25.77 206.11 25.39 205.062 24.63C204.014 23.87 203.314 22.7 202.962 21.12H205.842C206.09 21.98 206.514 22.63 207.114 23.07C207.73 23.51 208.482 23.73 209.37 23.73C210.274 23.73 210.994 23.5 211.53 23.04C212.082 22.58 212.358 21.94 212.358 21.12C212.358 20.46 212.158 19.93 211.758 19.53C211.358 19.13 210.83 18.81 210.174 18.57C209.518 18.33 208.714 18.09 207.762 17.85C206.602 17.57 205.626 17.23 204.834 16.83C204.042 16.43 203.426 15.91 202.986 15.27C202.562 14.61 202.35 13.78 202.35 12.78C202.35 11.02 202.93 9.66 204.09 8.7C205.266 7.74 206.754 7.26 208.578 7.26Z" fill="#0B2A4A"/>
  <path d="M219.429 15.54C219.429 13.74 219.837 12.16 220.653 10.8C221.485 9.42 222.589 8.37 223.965 7.65C225.357 6.91 226.909 6.54 228.621 6.54C230.541 6.54 232.229 6.99 233.685 7.89C235.157 8.77 236.261 10.02 236.997 11.64H233.241C232.733 10.8 232.077 10.18 231.273 9.78C230.469 9.36 229.565 9.15 228.561 9.15C227.377 9.15 226.317 9.41 225.381 9.93C224.461 10.45 223.741 11.18 223.221 12.12C222.701 13.06 222.441 14.18 222.441 15.48C222.441 16.78 222.701 17.9 223.221 18.84C223.741 19.78 224.461 20.51 225.381 21.03C226.317 21.55 227.377 21.81 228.561 21.81C229.565 21.81 230.469 21.6 231.273 21.18C232.077 20.76 232.733 20.14 233.241 19.32H236.997C236.261 20.92 235.157 22.18 233.685 23.1C232.229 24 230.541 24.45 228.621 24.45C226.909 24.45 225.357 24.09 223.965 23.37C222.589 22.63 221.485 21.58 220.653 20.22C219.837 18.86 219.429 17.3 219.429 15.54Z" fill="#0B2A4A"/>
  <path d="M239.229 15.54C239.229 13.74 239.637 12.16 240.453 10.8C241.285 9.42 242.389 8.37 243.765 7.65C245.157 6.91 246.709 6.54 248.421 6.54C250.341 6.54 252.029 6.99 253.485 7.89C254.957 8.77 256.061 10.02 256.797 11.64H253.041C252.533 10.8 251.877 10.18 251.073 9.78C250.269 9.36 249.365 9.15 248.361 9.15C247.177 9.15 246.117 9.41 245.181 9.93C244.261 10.45 243.541 11.18 243.021 12.12C242.501 13.06 242.241 14.18 242.241 15.48C242.241 16.78 242.501 17.9 243.021 18.84C243.541 19.78 244.261 20.51 245.181 21.03C246.117 21.55 247.177 21.81 248.361 21.81C249.365 21.81 250.269 21.6 251.073 21.18C251.877 20.76 252.533 20.14 253.041 19.32H256.797C256.061 20.92 254.957 22.18 253.485 23.1C252.029 24 250.341 24.45 248.421 24.45C246.709 24.45 245.157 24.09 243.765 23.37C242.389 22.63 241.285 21.58 240.453 20.22C239.637 18.86 239.229 17.3 239.229 15.54Z" fill="#0B2A4A"/>
  <path d="M13.4211 36.36C13.4211 38.12 12.9891 39.6 12.1251 40.8C11.2611 42 10.1011 42.92 8.6451 43.56C7.2051 44.2 5.5651 44.52 3.7251 44.52H0.1091V28.44H3.7251C5.5651 28.44 7.2051 28.76 8.6451 29.4C10.1011 30.04 11.2611 30.96 12.1251 32.16C12.9891 33.36 13.4211 34.76 13.4211 36.36ZM10.0851 36.36C10.0851 35.29 9.8611 34.36 9.4131 33.57C8.9811 32.76 8.3731 32.14 7.5891 31.7C6.8051 31.26 6.1011 31.02 5.0851 31C4.0771 30.98 2.5251 31 1.9011 31V42H3.7251C5.7891 42 7.3571 41.5 8.4371 40.5C9.5351 39.48 10.0851 38.08 10.0851 36.36Z" fill="#0B2A4A"/>
  <path d="M33.3064 44.52L31.6504 40.92H24.4424L22.7864 44.52H20.8904L27.0424 28.44H29.0504L35.2024 44.52H33.3064ZM31.0504 39.24L28.0464 31.08L25.0424 39.24H31.0504Z" fill="#0B2A4A"/>
  <path d="M51.1871 28.44V30.12H45.2271V44.52H43.4351V30.12H37.4751V28.44H51.1871Z" fill="#0B2A4A"/>
  <path d="M53.0625 28.44H54.8545V44.52H53.0625V28.44Z" fill="#0B2A4A"/>
  <path d="M70.9953 34.56C70.9953 35.84 70.7073 36.93 70.1313 37.83C69.5713 38.73 68.8033 39.41 67.8273 39.87C66.8513 40.33 65.7473 40.56 64.5153 40.56H61.3073V44.52H59.5153V28.44H64.5153C65.7473 28.44 66.8513 28.67 67.8273 29.13C68.8033 29.59 69.5713 30.27 70.1313 31.17C70.7073 32.07 70.9953 33.24 70.9953 34.56ZM69.1793 34.56C69.1793 33.6 68.9793 32.8 68.5793 32.16C68.1953 31.52 67.6673 31.05 66.9953 30.75C66.3233 30.45 65.5553 30.3 64.7073 30.3H61.3073V38.82H64.7073C65.5553 38.82 66.3233 38.67 66.9953 38.37C67.6673 38.07 68.1953 37.6 68.5793 36.96C68.9793 36.32 69.1793 35.52 69.1793 34.56Z" fill="#0B2A4A"/>
  <path d="M87.8459 44.52L77.3979 32.1V44.52H75.6059V28.44H77.2259L87.6739 40.86V28.44H89.4659V44.52H87.8459Z" fill="#0B2A4A"/>
  <path d="M95.0344 36.48C95.0344 34.58 95.4424 32.94 96.2584 31.56C97.0904 30.18 98.1944 29.12 99.5704 28.38C100.962 27.62 102.514 27.24 104.226 27.24C106.082 27.24 107.674 27.63 109.002 28.41C110.346 29.19 111.338 30.3 111.978 31.74H110.01C109.482 30.74 108.718 30 107.718 29.52C106.718 29.04 105.546 28.8 104.202 28.8C102.85 28.8 101.638 29.1 100.562 29.7C99.502 30.3 98.6664 31.16 98.0584 32.28C97.4504 33.4 97.1464 34.78 97.1464 36.42C97.1464 38.04 97.4504 39.42 98.0584 40.56C98.6664 41.68 99.502 42.54 100.562 43.14C101.638 43.74 102.85 44.04 104.202 44.04C105.546 44.04 106.718 43.8 107.718 43.32C108.718 42.84 109.482 42.1 110.01 41.1H111.978C111.338 42.54 110.338 43.65 108.978 44.43C107.634 45.21 106.042 45.6 104.202 45.6C102.506 45.6 100.962 45.22 99.5704 44.46C98.1944 43.7 97.0904 42.64 96.2584 41.28C95.4424 39.9 95.0344 38.28 95.0344 36.48Z" fill="#0B2A4A"/>
  <path d="M128.119 44.52H126.327V37.14H116.567V44.52H114.775V28.44H116.567V35.46H126.327V28.44H128.119V44.52Z" fill="#0B2A4A"/>
  <path d="M137.066 44.52V28.44H138.858V34.92H147.49V28.44H149.282V44.52H147.49V36.6H138.858V44.52H137.066Z" fill="#0B2A4A"/>
  <path d="M164.571 28.44V30.12H158.611V44.52H156.819V30.12H150.859V28.44H164.571Z" fill="#0B2A4A"/>
  <path d="M177.774 44.52L176.118 40.92H168.91L167.254 44.52H165.358L171.51 28.44H173.518L179.67 44.52H177.774ZM175.518 39.24L172.514 31.08L169.51 39.24H175.518Z" fill="#0B2A4A"/>
  <path d="M193.907 37.2H195.795V42.42C195.011 43.34 194.051 44.03 192.915 44.49C191.795 44.95 190.611 45.18 189.363 45.18C187.667 45.18 186.131 44.81 184.755 44.07C183.379 43.31 182.275 42.26 181.443 40.92C180.627 39.56 180.219 38.02 180.219 36.3C180.219 34.58 180.627 33.04 181.443 31.68C182.275 30.32 183.379 29.27 184.755 28.53C186.131 27.77 187.667 27.39 189.363 27.39C191.059 27.39 192.563 27.76 193.875 28.5C195.187 29.24 196.179 30.3 196.851 31.68L195.123 32.46C194.667 31.46 193.923 30.7 192.891 30.18C191.859 29.66 190.683 29.4 189.363 29.4C188.011 29.4 186.787 29.7 185.691 30.3C184.611 30.9 183.755 31.74 183.123 32.82C182.491 33.88 182.175 35.06 182.175 36.36C182.175 37.66 182.491 38.84 183.123 39.9C183.755 40.96 184.611 41.8 185.691 42.42C186.787 43.02 188.011 43.32 189.363 43.32C191.267 43.32 192.811 42.78 193.995 41.7L193.907 37.2Z" fill="#0B2A4A"/>
  <path d="M199.54 36.48C199.54 34.58 199.948 32.94 200.764 31.56C201.596 30.18 202.7 29.12 204.076 28.38C205.468 27.62 207.02 27.24 208.732 27.24C210.588 27.24 212.18 27.63 213.508 28.41C214.852 29.19 215.844 30.3 216.484 31.74H214.516C213.988 30.74 213.224 30 212.224 29.52C211.224 29.04 210.052 28.8 208.708 28.8C207.356 28.8 206.144 29.1 205.068 29.7C204.008 30.3 203.172 31.16 202.564 32.28C201.956 33.4 201.652 34.78 201.652 36.42C201.652 38.04 201.956 39.42 202.564 40.56C203.172 41.68 204.008 42.54 205.068 43.14C206.144 43.74 207.356 44.04 208.708 44.04C210.052 44.04 211.224 43.8 212.224 43.32C213.224 42.84 213.988 42.1 214.516 41.1H216.484C215.844 42.54 214.844 43.65 213.484 44.43C212.14 45.21 210.548 45.6 208.708 45.6C207.012 45.6 205.468 45.22 204.076 44.46C202.7 43.7 201.596 42.64 200.764 41.28C199.948 39.9 199.54 38.28 199.54 36.48Z" fill="#0B2A4A"/>
  <path d="M239.285 44.52V37.14H230.285C229.285 37.14 228.373 37.14 227.549 37.14V44.52H225.757V28.44H227.549V35.46H239.285V28.44H241.077V44.52H239.285Z" fill="#FFD700"/>
</svg>